<?xml version="1.0" encoding="utf-8"?>
<!-- Generator: Adobe Illustrator 25.0.0, SVG Export Plug-In . SVG Version: 6.00 Build 0)  -->
<svg version="1.1" id="Layer_1" xmlns="http://www.w3.org/2000/svg" xmlns:xlink="http://www.w3.org/1999/xlink" x="0px" y="0px"
	 viewBox="0 0 22.4 9.4" style="enable-background:new 0 0 22.4 9.4;" xml:space="preserve">
<style type="text/css">
	.st0{opacity:0.75;fill:#4C4C4C;}
	.st1{fill:#F04925;}
	.st2{fill:#D1270B;}
	.st3{fill:#F7B029;}
	.st4{fill:#F08E30;}
	.st5{fill:#231F20;}
	.st6{fill:#D66B12;}
	.st7{fill:#323948;}
	.st8{fill:#FFFFFF;}
	.st9{fill:url(#SVGID_1_);}
	.st10{fill:url(#SVGID_2_);}
	.st11{fill:url(#SVGID_3_);}
	.st12{fill:url(#SVGID_4_);}
	.st13{fill:url(#SVGID_5_);}
	.st14{fill:url(#SVGID_6_);}
	.st15{fill:url(#SVGID_7_);}
	.st16{fill:url(#SVGID_8_);}
	.st17{fill:url(#SVGID_9_);}
	.st18{fill:url(#SVGID_10_);}
	.st19{opacity:0.65;fill:#58717A;}
	.st20{fill:#282828;}
	.st21{fill:#B1B1B3;}
	.st22{fill:url(#SVGID_11_);}
	.st23{fill:url(#SVGID_12_);}
	.st24{fill:#2A363B;}
	.st25{opacity:0.5;fill:url(#SVGID_13_);}
	.st26{fill:#2C2C2D;}
	.st27{fill:#D0D0D0;}
	.st28{fill:#385459;}
	.st29{fill:#40413C;}
	.st30{fill:#FC6161;}
	.st31{fill:#7FB8F0;}
	.st32{fill:#A5424B;}
	.st33{opacity:0.2;fill:#CECDB6;}
	.st34{fill:#F4F4F4;}
	.st35{opacity:0.25;fill:#FFFFFF;}
	.st36{fill:#202533;}
	.st37{fill:#2E394A;}
	.st38{fill:#DADADA;}
	.st39{fill:#EDEDED;}
	.st40{fill:#DAD1D1;}
	.st41{fill:#C6C6C6;}
	.st42{fill:#404E66;}
	.st43{fill:#637487;}
	.st44{fill:#9EAAB8;}
	.st45{fill:#E75C5B;}
	.st46{fill:#695D59;}
	.st47{opacity:0.5;fill:#FFFFFF;}
	.st48{fill:#1D1715;}
	.st49{opacity:0.2;}
	.st50{fill:#3C3C3B;}
	.st51{fill:#575756;}
	.st52{fill:#F9B233;}
</style>
<path class="st0" d="M7,1.7v1.2H6.8c0-0.4,0-0.8-0.1-0.8C6.6,1.7,6.1,1.8,6.1,1.8L6,1.8c-0.1,0-0.3,0-0.3,0l-2.1,0l0-0.2
	c0,0,0,0,0,0l0.3-0.7c0,0-0.2-0.1-0.3,0S3.6,1.1,3.5,1.3c0,0.1,0,0.2,0,0.3l0,0.2l-0.9,0c0,0,0,0,0,0l-0.3,0c0,0-0.3,0.1-0.5,0.2
	c-0.6,0.6-0.6,5.1,0,5.8C1.9,7.9,2.2,8,2.2,8l0.3,0c0,0,0,0,0,0l0.9,0l0,0.2c0,0.1,0,0.1,0,0.3c0.1,0.2,0.2,0.3,0.3,0.5s0.3,0,0.3,0
	L3.7,8.2c0,0,0,0,0,0l0-0.2l2.1,0c0,0,0.1,0,0.3,0l0.1,0c0,0,0.5,0.1,0.7-0.2c0-0.1,0.1-0.4,0.1-0.8H7v1.2h14.4V1.7H7z"/>
<g>
	<path class="st26" d="M3.2,1.5L3.2,1.5c-0.1,0-0.1-0.1-0.1-0.1l0-0.3C3.2,1.1,3.2,1,3.3,1l0,0c0.1,0,0.1,0.1,0.1,0.1l0,0.3
		C3.3,1.5,3.3,1.5,3.2,1.5z"/>
	<path class="st27" d="M3.3,1.3l0.4-0.9c0,0-0.2-0.1-0.3,0S3.2,0.7,3.2,0.9C3.1,1.2,3.3,1.3,3.3,1.3z"/>
</g>
<g>
	<path class="st26" d="M3.2,7.5L3.2,7.5c-0.1,0-0.1,0.1-0.1,0.1l0,0.3c0,0.1,0.1,0.1,0.1,0.1l0,0c0.1,0,0.1-0.1,0.1-0.1l0-0.3
		C3.3,7.5,3.3,7.4,3.2,7.5z"/>
	<path class="st27" d="M3.3,7.7l0.4,0.9c0,0-0.2,0.1-0.3,0C3.4,8.4,3.2,8.3,3.2,8C3.1,7.7,3.3,7.7,3.3,7.7z"/>
</g>
<rect x="6.1" y="2.4" class="st28" width="1.3" height="4.1"/>
<path class="st29" d="M1.9,1.4c0,0-0.3,0.1-0.5,0.2c-0.6,0.6-0.6,5.1,0,5.8c0.1,0.2,0.5,0.2,0.5,0.2l3.5,0c0,0,0.5,0.1,0.7-0.2
	c0.1-0.3,0.1-2.9,0.1-2.9s0.1-2.6-0.1-2.9C5.9,1.3,5.4,1.4,5.4,1.4L1.9,1.4z"/>
<path class="st30" d="M2.3,1.4c0,0-0.3,0.1-0.5,0.2c-0.6,0.6-0.6,5.1,0,5.8c0.1,0.2,0.5,0.2,0.5,0.2l3.5,0c0,0,0.5,0.1,0.7-0.2
	c0.1-0.3,0.1-2.9,0.1-2.9s0.1-2.6-0.1-2.9C6.3,1.3,5.8,1.4,5.8,1.4L2.3,1.4z"/>
<path class="st30" d="M3.5,2.2c-0.1,0-0.3,1.4-0.3,2.2c0,0.9,0.2,2.2,0.3,2.2c0.1,0,2.3,0.1,2.5,0c0.1-0.1,0.1-4.4,0-4.5
	C5.9,2.1,3.6,2.2,3.5,2.2z"/>
<path class="st31" d="M1.9,2.1c0,0.1-0.1,0.6-0.1,1.2c0,0.6,0,1.1,0,1.2l0,0c0,0,0,0.6,0.1,1.3C1.9,6.3,2,6.8,2,6.9
	C2,7,3.2,6.7,3.2,6.7S3.1,6.2,3,5.5C2.9,5,2.9,4,3,3.4c0.1-0.6,0.2-1.2,0.2-1.2S2,1.9,1.9,2.1z"/>
<g>
	<path class="st28" d="M2.1,7.3l1.3-0.4H6L6,7.3c0,0-1.3,0-1.7,0C3.8,7.3,2.1,7.3,2.1,7.3z"/>
	<path class="st28" d="M2.1,1.7L3.4,2H6L6,1.7c0,0-1.3,0-1.7,0C3.8,1.7,2.1,1.7,2.1,1.7z"/>
</g>
<path class="st28" d="M6.3,2.8C6.3,2.8,6.3,2.9,6.3,2.8L6.3,6c0,0,0,0-0.1,0l0,0c0,0-0.1,0-0.1,0L6.3,2.8C6.2,2.9,6.3,2.8,6.3,2.8
	L6.3,2.8z"/>
<g>
	<path class="st32" d="M5.8,6.3C5.8,6.3,5.8,6.3,5.8,6.3L5.8,6.3C5.8,6.3,5.8,6.4,5.8,6.3L3.7,6.4c0,0-0.1,0-0.1,0l0,0
		c0,0,0,0,0.1,0H5.8z"/>
	<path class="st32" d="M5.8,5.8C5.8,5.8,5.8,5.8,5.8,5.8L5.8,5.8C5.8,5.8,5.8,5.8,5.8,5.8L3.7,5.8c0,0-0.1,0-0.1,0l0,0
		c0,0,0,0,0.1,0H5.8z"/>
	<path class="st32" d="M5.8,5.2C5.8,5.2,5.8,5.2,5.8,5.2L5.8,5.2C5.8,5.3,5.8,5.3,5.8,5.2L3.7,5.3c0,0-0.1,0-0.1,0l0,0
		c0,0,0,0,0.1,0H5.8z"/>
	<path class="st32" d="M5.8,4.7C5.8,4.7,5.8,4.7,5.8,4.7L5.8,4.7C5.8,4.8,5.8,4.8,5.8,4.7L3.7,4.8c0,0-0.1,0-0.1,0l0,0
		c0,0,0,0,0.1,0H5.8z"/>
	<path class="st32" d="M5.8,4.2C5.8,4.2,5.8,4.2,5.8,4.2L5.8,4.2C5.8,4.2,5.8,4.2,5.8,4.2L3.7,4.2c0,0-0.1,0-0.1,0l0,0
		c0,0,0,0,0.1,0H5.8z"/>
	<path class="st32" d="M5.8,3.6C5.8,3.6,5.8,3.7,5.8,3.6L5.8,3.6C5.8,3.7,5.8,3.7,5.8,3.6L3.7,3.7c0,0-0.1,0-0.1,0l0,0
		c0,0,0,0,0.1,0H5.8z"/>
	<path class="st32" d="M5.8,3.1C5.8,3.1,5.8,3.1,5.8,3.1L5.8,3.1C5.8,3.2,5.8,3.2,5.8,3.1L3.7,3.2c0,0-0.1,0-0.1,0l0,0
		c0,0,0,0,0.1,0H5.8z"/>
	<path class="st32" d="M5.8,2.6C5.8,2.6,5.8,2.6,5.8,2.6L5.8,2.6C5.8,2.6,5.8,2.6,5.8,2.6L3.7,2.6c0,0-0.1,0-0.1,0l0,0
		c0,0,0,0,0.1,0H5.8z"/>
</g>
<polygon class="st33" points="1.8,5.4 3.1,5.9 3,5.7 1.8,5 "/>
<polygon class="st33" points="1.8,4.2 3,4.9 2.9,4.5 1.8,3.6 "/>
<polygon class="st33" points="1.8,3.1 2.9,3.9 2.9,3.8 1.8,2.8 "/>
<rect x="6.7" y="1.2" class="st34" width="14.4" height="6.5"/>
</svg>
